<svg width="164" height="604" viewBox="0 0 164 604" fill="none" xmlns="http://www.w3.org/2000/svg">
<rect width="164" height="604" fill="url(#paint0_linear_91_22)" fill-opacity="0.5"/>
<path d="M109.187 441.19H57.0631V438.631H109.187V441.19Z" fill="#9FDF73"/>
<path d="M109.187 436.053H57.0631V433.493H109.187V436.053Z" fill="#9FDF73"/>
<path d="M109.187 430.726H57.0631V427.11H109.187V430.726Z" fill="#9FDF73"/>
<path d="M77.7599 424.447H109.187V425.303H57.0631L60.1863 421.973H79.6732L77.7599 424.447Z" fill="#9FDF73"/>
<path d="M81.4986 419.975H61.7045L63.8699 416.835H84.5406L81.4986 419.975Z" fill="#9FDF73"/>
<path d="M84.4358 414.646H64.9516L66.4209 411.793H87.3233L84.4358 414.646Z" fill="#9FDF73"/>
<path d="M86.3189 409.224H65.4937L64.1017 406.656H83.5859L86.3189 409.224Z" fill="#9FDF73"/>
<path d="M83.4576 403.897H62.5552L61.3177 401.517H80.8019L83.4576 403.897Z" fill="#9FDF73"/>
<path d="M98.4594 398.283H76.4701L78.7818 399.476H59.4422L57.0631 396.476H98.4594V398.283Z" fill="#9FDF73"/>
<path d="M98.4594 393.145H57.0631V391.338H98.4594V393.145Z" fill="#9FDF73"/>
<path d="M98.4594 387.818H57.0631V386.201H98.4594V387.818Z" fill="#9FDF73"/>
<path d="M98.4594 382.49H57.0631V381.539H98.4594V382.49Z" fill="#9FDF73"/>
<path d="M128.476 342.872H98.1674L96.4663 338.971H130.177L128.476 342.872Z" fill="#9FDF73"/>
<path d="M68.5003 342.642H27.599V338.741H68.5003V342.642Z" fill="#9FDF73"/>
<path d="M130.719 337.735H95.9255L94.2244 333.834H132.42L130.719 337.735Z" fill="#9FDF73"/>
<path d="M68.5003 337.503H27.599V333.603H68.5003V337.503Z" fill="#9FDF73"/>
<path d="M133.038 332.408H93.6063L91.9825 328.792H134.585L133.038 332.408Z" fill="#9FDF73"/>
<path d="M68.5003 332.176H27.599V328.56H68.5003V332.176Z" fill="#9FDF73"/>
<path d="M108.76 326.127H117.883L118.966 323.655H136.75L135.357 326.984H91.2099L89.8179 323.655H107.678L108.76 326.127Z" fill="#9FDF73"/>
<path d="M56.6701 325.897H68.5003V326.753H27.599V325.897H39.4278V323.423H56.6701V325.897Z" fill="#9FDF73"/>
<path d="M106.75 321.657H88.9667L87.5747 318.516H105.435L106.75 321.657Z" fill="#9FDF73"/>
<path d="M137.678 321.657H119.818L121.208 318.516H138.991L137.678 321.657Z" fill="#9FDF73"/>
<path d="M56.6701 321.425H39.4278V318.286H56.6701V321.425Z" fill="#9FDF73"/>
<path d="M104.431 316.328H86.6476L85.875 314.521V313.475H103.193L104.431 316.328Z" fill="#9FDF73"/>
<path d="M140.77 314.521L139.997 316.328H122.137L123.374 313.475H140.77V314.521Z" fill="#9FDF73"/>
<path d="M56.6701 316.098H39.4278V313.243H56.6701V316.098Z" fill="#9FDF73"/>
<path d="M103.116 310.906H85.875V308.338H103.116V310.906Z" fill="#9FDF73"/>
<path d="M140.77 310.906H123.529V308.338H140.77V310.906Z" fill="#9FDF73"/>
<path d="M56.6701 310.674H39.4278V308.106H56.6701V310.674Z" fill="#9FDF73"/>
<path d="M140.77 305.578H123.529V303.199H140.77V305.578Z" fill="#9FDF73"/>
<path d="M56.6701 305.347H39.4278V302.969H56.6701V305.347Z" fill="#9FDF73"/>
<path d="M140.77 300.25H123.529V298.157H140.77V300.25Z" fill="#9FDF73"/>
<path d="M68.5003 299.733H56.6701V300.018H39.4278V299.733H27.599V297.926H68.5003V299.733Z" fill="#9FDF73"/>
<path d="M140.77 294.827H123.529V293.02H140.77V294.827Z" fill="#9FDF73"/>
<path d="M68.5003 294.596H27.599V292.788H68.5003V294.596Z" fill="#9FDF73"/>
<path d="M140.77 289.499H123.529V287.882H140.77V289.499Z" fill="#9FDF73"/>
<path d="M68.5003 289.268H27.599V287.651H68.5003V289.268Z" fill="#9FDF73"/>
<path d="M140.77 284.172H123.529V283.22H140.77V284.172Z" fill="#9FDF73"/>
<path d="M68.5003 283.94H27.599V282.989H68.5003V283.94Z" fill="#9FDF73"/>
<path d="M64.247 246.387H38.2244L36.5233 242.486H64.247V246.387Z" fill="#9FDF73"/>
<path d="M106.106 246.387H88.8633V242.486H106.106V246.387Z" fill="#9FDF73"/>
<path d="M64.247 241.25H35.9812L34.2801 237.349H64.247V241.25Z" fill="#9FDF73"/>
<path d="M106.106 241.25H88.8633V237.349H106.106V241.25Z" fill="#9FDF73"/>
<path d="M64.247 235.922H33.662L32.0382 232.307H64.247V235.922Z" fill="#9FDF73"/>
<path d="M106.106 235.922H88.8633V232.307H106.106V235.922Z" fill="#9FDF73"/>
<path d="M140.899 235.922H123.657V232.307H140.899V235.922Z" fill="#9FDF73"/>
<path d="M49.4351 229.642H64.247V230.499H31.2656L29.8736 227.169H48.2749L49.4351 229.642Z" fill="#9FDF73"/>
<path d="M106.106 230.499H88.8633V227.169H106.106V230.499Z" fill="#9FDF73"/>
<path d="M140.899 230.499H123.657V227.169H140.899V230.499Z" fill="#9FDF73"/>
<path d="M47.425 225.172H29.0224L27.6317 222.032H45.9557L47.425 225.172Z" fill="#9FDF73"/>
<path d="M140.899 225.172H123.657V224.981H106.106V225.172H88.8633V222.032H140.899V225.172Z" fill="#9FDF73"/>
<path d="M44.95 219.843H26.7033L25.9307 218.036V216.99H43.7138L44.95 219.843Z" fill="#9FDF73"/>
<path d="M140.899 219.843H88.8633V216.99H140.899V219.843Z" fill="#9FDF73"/>
<path d="M44.641 214.421H26.1624L27.3227 211.851H45.8012L44.641 214.421Z" fill="#9FDF73"/>
<path d="M140.899 214.421H88.8633V211.851H140.899V214.421Z" fill="#9FDF73"/>
<path d="M46.9614 209.094H28.4816L29.5646 206.714H48.0431L46.9614 209.094Z" fill="#9FDF73"/>
<path d="M77.6564 209.094H76.2644L75.0269 206.714H77.6564V209.094Z" fill="#9FDF73"/>
<path d="M106.106 208.237H123.657V206.714H140.899V209.094H88.8633V206.714H106.106V208.237Z" fill="#9FDF73"/>
<path d="M77.6564 203.765H73.5576L73.4031 203.48H49.4351L49.2806 203.765H30.8007L31.7292 201.673H77.6564V203.765Z" fill="#9FDF73"/>
<path d="M106.106 203.765H88.8633V201.673H106.106V203.765Z" fill="#9FDF73"/>
<path d="M140.899 203.765H123.657V201.673H140.899V203.765Z" fill="#9FDF73"/>
<path d="M77.6564 198.343H33.1212L33.8938 196.535H77.6564V198.343Z" fill="#9FDF73"/>
<path d="M106.106 198.343H88.8633V196.535H106.106V198.343Z" fill="#9FDF73"/>
<path d="M140.899 198.343H123.657V196.535H140.899V198.343Z" fill="#9FDF73"/>
<path d="M77.6564 193.014H35.4403L36.1357 191.397H77.6564V193.014Z" fill="#9FDF73"/>
<path d="M106.106 193.014H88.8633V191.397H106.106V193.014Z" fill="#9FDF73"/>
<path d="M140.899 193.014H123.657V191.397H140.899V193.014Z" fill="#9FDF73"/>
<path d="M77.6564 187.687H37.7595L38.2244 186.735H77.6564V187.687Z" fill="#9FDF73"/>
<path d="M106.106 187.687H88.8633V186.735H106.106V187.687Z" fill="#9FDF73"/>
<path d="M140.899 187.687H123.657V186.735H140.899V187.687Z" fill="#9FDF73"/>
<path d="M79.6337 152.359H62.3914V147.731H79.6337V152.359Z" fill="#9FDF73"/>
<path d="M106.277 152.359H89.0348V147.731H106.277V152.359Z" fill="#9FDF73"/>
<path d="M79.6337 146.39H62.3914V141.761H79.6337V146.39Z" fill="#9FDF73"/>
<path d="M106.277 146.39H89.0348V141.761H106.277V146.39Z" fill="#9FDF73"/>
<path d="M79.6337 140.42H62.3914V135.791H79.6337V140.42Z" fill="#9FDF73"/>
<path d="M106.277 140.42H89.0348V135.791H106.277V140.42Z" fill="#9FDF73"/>
<path d="M79.6337 134.45H62.3914V130.249H79.6337V134.45Z" fill="#9FDF73"/>
<path d="M106.277 134.45H89.0348V130.249H106.277V134.45Z" fill="#9FDF73"/>
<path d="M44.84 129.012H27.599V125.112H44.84V129.012Z" fill="#9FDF73"/>
<path d="M79.6337 129.012H62.3914V125.112H79.6337V129.012Z" fill="#9FDF73"/>
<path d="M106.277 129.012H89.0348V125.112H106.277V129.012Z" fill="#9FDF73"/>
<path d="M141.07 129.012H123.829V125.112H141.07V129.012Z" fill="#9FDF73"/>
<path d="M44.84 123.685H27.599V120.069H44.84V123.685Z" fill="#9FDF73"/>
<path d="M79.6337 123.685H62.3914V120.069H79.6337V123.685Z" fill="#9FDF73"/>
<path d="M106.277 123.685H89.0348V120.069H106.277V123.685Z" fill="#9FDF73"/>
<path d="M141.07 123.685H123.829V121.401L123.055 120.069H141.07V123.685Z" fill="#9FDF73"/>
<path d="M44.84 118.262H27.599V114.932H44.84V118.262Z" fill="#9FDF73"/>
<path d="M79.6337 118.262H62.3914V114.932H79.6337V118.262Z" fill="#9FDF73"/>
<path d="M106.277 118.262H89.0348V114.932H106.277V118.262Z" fill="#9FDF73"/>
<path d="M141.07 117.881V118.262H122.05L120.272 114.932H139.524L141.07 117.881Z" fill="#9FDF73"/>
<path d="M79.6337 112.934H27.599V109.795H79.6337V112.934Z" fill="#9FDF73"/>
<path d="M106.277 112.934H89.0348V109.795H106.277V112.934Z" fill="#9FDF73"/>
<path d="M138.519 112.934H119.189L117.488 109.795H136.895L138.519 112.934Z" fill="#9FDF73"/>
<path d="M79.6337 107.606H27.599V104.752H79.6337V107.606Z" fill="#9FDF73"/>
<path d="M106.277 107.606H89.0348V104.752H106.277V107.606Z" fill="#9FDF73"/>
<path d="M135.736 107.606H116.252L114.705 104.752H134.267L135.736 107.606Z" fill="#9FDF73"/>
<path d="M79.6337 102.182H27.599V99.6145H79.6337V102.182Z" fill="#9FDF73"/>
<path d="M106.277 102.182H89.0348V99.6145H106.277V102.182Z" fill="#9FDF73"/>
<path d="M135.271 102.182H115.71L117.102 99.6145H136.663L135.271 102.182Z" fill="#9FDF73"/>
<path d="M44.84 96.8553H27.599V94.4773H44.84V96.8553Z" fill="#9FDF73"/>
<path d="M79.6337 96.8553H62.3914V94.4773H79.6337V96.8553Z" fill="#9FDF73"/>
<path d="M106.277 96.8553H89.0348V94.4773H106.277V96.8553Z" fill="#9FDF73"/>
<path d="M138.132 96.8553H118.648L119.886 94.4773H139.37L138.132 96.8553Z" fill="#9FDF73"/>
<path d="M79.6337 91.5269H62.3914V91.2428H44.84V91.5269H27.599V89.4343H79.6337V91.5269Z" fill="#9FDF73"/>
<path d="M141.07 91.4327L140.992 91.5269H121.509L121.664 91.2428H106.277V91.5269H89.0348V89.4343H141.07V91.4327Z" fill="#9FDF73"/>
<path d="M79.6337 86.1042H27.599V84.2971H79.6337V86.1042Z" fill="#9FDF73"/>
<path d="M141.07 86.1042H89.0348V84.2971H141.07V86.1042Z" fill="#9FDF73"/>
<path d="M79.6337 80.7772H27.599V79.1599H79.6337V80.7772Z" fill="#9FDF73"/>
<path d="M141.07 80.7772H89.0348V79.1599H141.07V80.7772Z" fill="#9FDF73"/>
<path d="M79.6337 75.4488H27.599V74.498H79.6337V75.4488Z" fill="#9FDF73"/>
<path d="M141.07 75.4488H89.0348V74.498H141.07V75.4488Z" fill="#9FDF73"/>
<defs>
<linearGradient id="paint0_linear_91_22" x1="82" y1="229.348" x2="82" y2="864.845" gradientUnits="userSpaceOnUse">
<stop stop-color="#0D0E08" stop-opacity="0"/>
<stop offset="1" stop-color="#0D0E08"/>
</linearGradient>
</defs>
</svg>
