<svg width="533" height="101" viewBox="0 0 533 101" fill="none" xmlns="http://www.w3.org/2000/svg">
<path d="M0.256104 92.1361V85.5761H96.8961L93.3761 92.1361H0.256104ZM0.256104 83.1761V77.0961H101.376L98.1761 83.1761H0.256104ZM88.8961 100.776H0.256104V94.2161H92.2561L88.8961 100.776ZM66.6561 72.6161L68.8961 68.4561H105.856L102.976 74.0561H0.256104V68.4561H35.9361V72.6161H66.6561ZM78.3361 29.0961V28.6161H35.9361V29.0961H0.256104V25.5761H114.016V29.0961H78.3361ZM0.256104 19.9761V16.9361H114.016V19.9761H0.256104ZM0.256104 11.0161V8.29606H114.016V11.0161H0.256104ZM70.6561 65.0961L73.5361 59.8161H110.496L107.616 65.0961H70.6561ZM0.256104 65.0961V59.8161H35.9361V65.0961H0.256104ZM114.016 0.456055V2.05605H0.256104V0.456055H114.016ZM114.016 53.0961L112.416 56.1361H75.4561L78.0161 51.3361H114.016V53.0961ZM0.256104 56.1361V51.3361H35.9361V56.1361H0.256104ZM0.256104 47.0161V42.6961H35.9361V47.0161H0.256104ZM78.3361 47.0161V42.6961H114.016V47.0161H78.3361ZM0.256104 38.0561V34.0561H35.9361V38.0561H0.256104ZM78.3361 38.0561V34.0561H114.016V38.0561H78.3361Z" fill="#9FDF73"/>
<path d="M160.174 92.1361L156.814 85.5761H253.454V92.1361H160.174ZM155.534 83.1761L152.334 77.0961H253.454V83.1761H155.534ZM253.454 100.776H164.814L161.294 94.2161H253.454V100.776ZM184.494 68.4561L186.734 72.6161H217.774V68.4561H253.454V74.0561H150.734L147.694 68.4561H184.494ZM145.934 65.0961L143.214 59.8161H180.014L182.734 65.0961H145.934ZM217.774 65.0961V59.8161H253.454V65.0961H217.774ZM139.694 53.0961V51.3361H175.534L178.094 56.1361H141.294L139.694 53.0961ZM217.774 56.1361V51.3361H253.454V56.1361H217.774ZM139.694 47.0161V42.6961H175.374V47.0161H139.694ZM217.774 47.0161V42.6961H253.454V47.0161H217.774ZM139.694 38.0561V34.0561H175.374V38.0561H139.694ZM217.774 38.0561V34.0561H253.454V38.0561H217.774ZM139.694 29.0961V25.5761H175.374V29.0961H139.694ZM217.774 29.0961V25.5761H253.454V29.0961H217.774ZM139.694 19.9761V16.9361H175.374V19.9761H139.694ZM217.774 19.9761V16.9361H253.454V19.9761H217.774ZM139.694 11.0161V8.29606H175.374V11.0161H139.694ZM217.774 11.0161V8.29606H253.454V11.0161H217.774ZM139.694 0.456055H175.374V2.05605H139.694V0.456055ZM217.774 2.05605V0.456055H253.454V2.05605H217.774Z" fill="#9FDF73"/>
<path d="M279.131 92.1361V85.5761H375.771L372.251 92.1361H279.131ZM279.131 83.1761V77.0961H380.251L377.051 83.1761H279.131ZM367.771 100.776H279.131V94.2161H371.131L367.771 100.776ZM345.531 72.6161L347.771 68.4561H384.731L381.851 74.0561H279.131V68.4561H314.811V72.6161H345.531ZM357.211 29.0961V28.6161H314.811V29.0961H279.131V25.5761H392.891V29.0961H357.211ZM279.131 19.9761V16.9361H392.891V19.9761H279.131ZM279.131 11.0161V8.29606H392.891V11.0161H279.131ZM349.531 65.0961L352.411 59.8161H389.371L386.491 65.0961H349.531ZM279.131 65.0961V59.8161H314.811V65.0961H279.131ZM392.891 0.456055V2.05605H279.131V0.456055H392.891ZM392.891 53.0961L391.291 56.1361H354.331L356.891 51.3361H392.891V53.0961ZM279.131 56.1361V51.3361H314.811V56.1361H279.131ZM279.131 47.0161V42.6961H314.811V47.0161H279.131ZM357.211 47.0161V42.6961H392.891V47.0161H357.211ZM279.131 38.0561V34.0561H314.811V38.0561H279.131ZM357.211 38.0561V34.0561H392.891V38.0561H357.211Z" fill="#9FDF73"/>
<path d="M439.049 92.1361L435.689 85.5761H532.329V92.1361H439.049ZM434.409 83.1761L431.209 77.0961H532.329V83.1761H434.409ZM532.329 100.776H443.689L440.169 94.2161H532.329V100.776ZM463.369 68.4561L465.609 72.6161H496.649V68.4561H532.329V74.0561H429.609L426.569 68.4561H463.369ZM424.809 65.0961L422.089 59.8161H458.889L461.609 65.0961H424.809ZM496.649 65.0961V59.8161H532.329V65.0961H496.649ZM418.569 53.0961V51.3361H454.409L456.969 56.1361H420.169L418.569 53.0961ZM496.649 56.1361V51.3361H532.329V56.1361H496.649ZM418.569 47.0161V42.6961H454.249V47.0161H418.569ZM496.649 47.0161V42.6961H532.329V47.0161H496.649ZM418.569 38.0561V34.0561H454.249V38.0561H418.569ZM496.649 38.0561V34.0561H532.329V38.0561H496.649ZM418.569 29.0961V25.5761H454.249V29.0961H418.569ZM496.649 29.0961V25.5761H532.329V29.0961H496.649ZM418.569 19.9761V16.9361H454.249V19.9761H418.569ZM496.649 19.9761V16.9361H532.329V19.9761H496.649ZM418.569 11.0161V8.29606H454.249V11.0161H418.569ZM496.649 11.0161V8.29606H532.329V11.0161H496.649ZM418.569 0.456055H454.249V2.05605H418.569V0.456055ZM496.649 2.05605V0.456055H532.329V2.05605H496.649Z" fill="#9FDF73"/>
</svg>
