<svg width="248" height="68" viewBox="0 0 248 68" fill="none" xmlns="http://www.w3.org/2000/svg">
<rect width="248" height="68" fill="url(#paint0_linear_91_13)"/>
<path d="M48.2056 40.8765V26.1235H51.8301L59.8905 36.5349H57.9701L65.8953 26.1235H69.4927L69.5468 40.8765H65.4355L65.4084 31.0341H66.1658L59.8364 39.3169H57.8619L51.3973 31.0341H52.3169V40.8765H48.2056Z" fill="#F9BE64"/>
<path d="M82.4511 41.1294C79.7643 41.1294 77.6635 40.5463 76.1488 39.3801C74.6341 38.2139 73.8767 36.5489 73.8767 34.3852V26.1235H78.2586V34.2587C78.2586 35.6638 78.6282 36.6754 79.3675 37.2936C80.1069 37.9118 81.1437 38.221 82.4781 38.221C83.8125 38.221 84.8494 37.9118 85.5887 37.2936C86.328 36.6754 86.6977 35.6638 86.6977 34.2587V26.1235H91.0255V34.3852C91.0255 36.5489 90.2681 38.2139 88.7534 39.3801C87.2387 40.5463 85.1379 41.1294 82.4511 41.1294Z" fill="#F9BE64"/>
<path d="M101.577 41.1294C100.062 41.1294 98.6104 40.9748 97.2219 40.6657C95.8334 40.3426 94.7154 39.9281 93.8679 39.4223L95.3555 36.851C96.167 37.3006 97.1227 37.673 98.2227 37.968C99.3407 38.2491 100.468 38.3896 101.604 38.3896C102.469 38.3896 103.164 38.3263 103.686 38.1999C104.227 38.0594 104.624 37.8697 104.877 37.6308C105.129 37.392 105.255 37.118 105.255 36.8089C105.255 36.4155 105.057 36.1064 104.66 35.8816C104.264 35.6427 103.741 35.453 103.091 35.3125C102.442 35.158 101.721 35.0174 100.928 34.891C100.152 34.7505 99.3677 34.5819 98.5743 34.3852C97.7989 34.1885 97.0866 33.9356 96.4375 33.6265C95.7883 33.3173 95.2564 32.9099 94.8416 32.4041C94.4449 31.8982 94.2465 31.2519 94.2465 30.4651C94.2465 29.6221 94.5351 28.8563 95.1121 28.1679C95.7072 27.4653 96.5907 26.9103 97.7628 26.5029C98.953 26.0814 100.441 25.8706 102.226 25.8706C103.416 25.8706 104.588 25.983 105.742 26.2078C106.896 26.4186 107.915 26.7417 108.799 27.1773L107.446 29.7696C106.563 29.3762 105.679 29.0882 104.795 28.9055C103.912 28.7088 103.046 28.6104 102.199 28.6104C101.351 28.6104 100.657 28.6877 100.116 28.8423C99.5751 28.9968 99.1874 29.2006 98.953 29.4535C98.7186 29.6923 98.6014 29.9733 98.6014 30.2965C98.6014 30.6759 98.7997 30.985 99.1964 31.2238C99.5931 31.4486 100.116 31.6313 100.765 31.7718C101.414 31.9123 102.127 32.0528 102.902 32.1933C103.695 32.3338 104.48 32.4954 105.255 32.678C106.049 32.8607 106.77 33.1066 107.419 33.4157C108.068 33.7248 108.591 34.1323 108.988 34.6381C109.403 35.1439 109.61 35.7832 109.61 36.556C109.61 37.3849 109.313 38.1437 108.717 38.8321C108.122 39.5206 107.23 40.0756 106.04 40.4971C104.868 40.9186 103.38 41.1294 101.577 41.1294Z" fill="#F9BE64"/>
<path d="M112.604 40.8765V26.1235H116.986V40.8765H112.604Z" fill="#F9BE64"/>
<path d="M130.541 41.1294C129.08 41.1294 127.719 40.9467 126.456 40.5814C125.212 40.2021 124.13 39.6681 123.211 38.9797C122.291 38.2912 121.57 37.4833 121.047 36.556C120.542 35.6286 120.289 34.61 120.289 33.5C120.289 32.39 120.542 31.3714 121.047 30.444C121.57 29.5167 122.291 28.7088 123.211 28.0203C124.148 27.3319 125.239 26.805 126.483 26.4396C127.728 26.0603 129.089 25.8706 130.568 25.8706C132.209 25.8706 133.687 26.0954 135.004 26.545C136.338 26.9806 137.456 27.6269 138.358 28.484L135.545 30.5073C134.896 29.9312 134.174 29.5026 133.381 29.2216C132.587 28.9266 131.722 28.779 130.784 28.779C129.901 28.779 129.089 28.8915 128.35 29.1163C127.611 29.3411 126.97 29.6642 126.429 30.0857C125.888 30.5073 125.465 31.006 125.158 31.5821C124.87 32.1582 124.725 32.7975 124.725 33.5C124.725 34.2025 124.87 34.8418 125.158 35.4179C125.465 35.994 125.888 36.4927 126.429 36.9143C126.97 37.3358 127.611 37.6589 128.35 37.8837C129.089 38.1085 129.901 38.221 130.784 38.221C131.722 38.221 132.587 38.0804 133.381 37.7994C134.174 37.5044 134.896 37.0618 135.545 36.4717L138.358 38.4949C137.456 39.352 136.338 40.0054 135.004 40.455C133.687 40.9046 132.2 41.1294 130.541 41.1294Z" fill="#F9BE64"/>
<defs>
<linearGradient id="paint0_linear_91_13" x1="180.205" y1="26.9563" x2="67.7951" y2="26.9563" gradientUnits="userSpaceOnUse">
<stop stop-color="#12130D"/>
<stop offset="1" stop-color="#040400"/>
</linearGradient>
</defs>
</svg>
