<svg width="65" height="379" viewBox="0 0 65 379" fill="none" xmlns="http://www.w3.org/2000/svg">
<rect width="65" height="379" fill="url(#paint0_linear_91_10)"/>
<path d="M26.6381 35.5824V16.7515H33.1751C34.7353 16.7515 36.0714 17.0025 37.1834 17.5047C38.3132 18.0069 39.174 18.7242 39.7659 19.6568C40.3577 20.5714 40.6536 21.6834 40.6536 22.9926C40.6536 24.3018 40.3577 25.4226 39.7659 26.3552C39.174 27.2878 38.3132 28.0052 37.1834 28.5073C36.0714 29.0095 34.7353 29.2606 33.1751 29.2606H27.1492L27.5527 28.8301V35.5824H26.6381ZM39.8735 35.5824L34.9774 28.7494H36.0266L40.9495 35.5824H39.8735ZM27.5527 28.8301L27.1492 28.4266H33.2289C35.3451 28.4266 36.9592 27.9514 38.0711 27.0009C39.201 26.0503 39.7659 24.7142 39.7659 22.9926C39.7659 21.2709 39.201 19.9438 38.0711 19.0112C36.9592 18.0607 35.3451 17.5854 33.2289 17.5854H27.1492L27.5527 17.155V28.8301Z" fill="url(#paint1_linear_91_10)"/>
<path d="M18.492 64.924H46.6745V65.7579H18.492V64.924ZM18.6534 74.0704H48.2616V74.9043H17.7388V56.0734H47.885V56.9074H18.6534V74.0704Z" fill="url(#paint2_linear_91_10)"/>
<path d="M34.5201 114.334C33.1213 114.334 31.821 114.101 30.6194 113.634C29.4358 113.15 28.3956 112.478 27.4989 111.617C26.6201 110.756 25.9386 109.752 25.4544 108.604C24.9702 107.438 24.7281 106.174 24.7281 104.811C24.7281 103.448 24.9702 102.192 25.4544 101.045C25.9386 99.8789 26.6201 98.8657 27.4989 98.0048C28.3956 97.144 29.4358 96.4804 30.6194 96.0141C31.821 95.5299 33.1213 95.2878 34.5201 95.2878C35.8293 95.2878 37.0578 95.494 38.2056 95.9065C39.3534 96.319 40.3308 96.9377 41.1378 97.7627L40.5998 98.3814C39.739 97.5565 38.8064 96.9736 37.8021 96.6329C36.7978 96.2921 35.7127 96.1217 34.547 96.1217C33.2737 96.1217 32.09 96.3459 30.9961 96.7943C29.92 97.2247 28.9785 97.8344 28.1714 98.6235C27.3644 99.4127 26.7367 100.336 26.2883 101.394C25.8579 102.435 25.6427 103.573 25.6427 104.811C25.6427 106.048 25.8579 107.196 26.2883 108.254C26.7367 109.294 27.3644 110.209 28.1714 110.998C28.9785 111.787 29.92 112.406 30.9961 112.854C32.09 113.285 33.2737 113.5 34.547 113.5C35.6948 113.5 36.7798 113.33 37.8021 112.989C38.8423 112.63 39.7659 112.047 40.5729 111.24L41.1109 111.913C40.286 112.72 39.2996 113.33 38.1518 113.742C37.004 114.137 35.7935 114.334 34.5201 114.334ZM40.2501 111.859V104.945H41.1109V111.913L40.2501 111.859Z" fill="url(#paint3_linear_91_10)"/>
<path d="M34.5201 153.656C33.1213 153.656 31.821 153.423 30.6194 152.956C29.4358 152.472 28.3956 151.8 27.4989 150.939C26.6201 150.078 25.9386 149.074 25.4544 147.926C24.9702 146.76 24.7281 145.496 24.7281 144.133C24.7281 142.77 24.9702 141.514 25.4544 140.367C25.9386 139.201 26.6201 138.188 27.4989 137.327C28.3956 136.466 29.4358 135.802 30.6194 135.336C31.821 134.852 33.1213 134.61 34.5201 134.61C35.8293 134.61 37.0578 134.816 38.2056 135.228C39.3534 135.641 40.3308 136.26 41.1378 137.085L40.5998 137.703C39.739 136.878 38.8064 136.296 37.8021 135.955C36.7978 135.614 35.7127 135.444 34.547 135.444C33.2737 135.444 32.09 135.668 30.9961 136.116C29.92 136.547 28.9785 137.156 28.1714 137.946C27.3644 138.735 26.7367 139.658 26.2883 140.716C25.8579 141.757 25.6427 142.895 25.6427 144.133C25.6427 145.37 25.8579 146.518 26.2883 147.576C26.7367 148.616 27.3644 149.531 28.1714 150.32C28.9785 151.109 29.92 151.728 30.9961 152.176C32.09 152.607 33.2737 152.822 34.547 152.822C35.6948 152.822 36.7798 152.652 37.8021 152.311C38.8423 151.952 39.7659 151.369 40.5729 150.562L41.1109 151.235C40.286 152.042 39.2996 152.652 38.1518 153.064C37.004 153.459 35.7935 153.656 34.5201 153.656ZM40.2501 151.181V144.267H41.1109V151.235L40.2501 151.181Z" fill="url(#paint4_linear_91_10)"/>
<path d="M23.383 192.87L32.099 174.039H32.9868L41.7028 192.87H40.7074L32.3411 174.658H32.7446L24.3783 192.87H23.383ZM26.3959 187.355L26.7457 186.575H38.2594L38.6091 187.355H26.3959Z" fill="url(#paint5_linear_91_10)"/>
<path d="M18.492 222.212H46.6745V223.046H18.492V222.212ZM18.6534 231.358H48.2616V232.192H17.7388V213.361H47.885V214.195H18.6534V231.358Z" fill="url(#paint6_linear_91_10)"/>
<defs>
<linearGradient id="paint0_linear_91_10" x1="32.5" y1="106.195" x2="32.5" y2="379" gradientUnits="userSpaceOnUse">
<stop stop-opacity="0.07"/>
<stop offset="1" stop-color="#12130D"/>
</linearGradient>
<linearGradient id="paint1_linear_91_10" x1="32.5429" y1="75.5054" x2="32.5429" y2="206.721" gradientUnits="userSpaceOnUse">
<stop stop-color="#F1AB48"/>
<stop offset="1" stop-color="#9FDF73"/>
</linearGradient>
<linearGradient id="paint2_linear_91_10" x1="32.5429" y1="75.5054" x2="32.5429" y2="206.721" gradientUnits="userSpaceOnUse">
<stop stop-color="#F1AB48"/>
<stop offset="1" stop-color="#9FDF73"/>
</linearGradient>
<linearGradient id="paint3_linear_91_10" x1="32.5429" y1="75.5054" x2="32.5429" y2="206.721" gradientUnits="userSpaceOnUse">
<stop stop-color="#F1AB48"/>
<stop offset="1" stop-color="#9FDF73"/>
</linearGradient>
<linearGradient id="paint4_linear_91_10" x1="32.5429" y1="75.5054" x2="32.5429" y2="206.721" gradientUnits="userSpaceOnUse">
<stop stop-color="#F1AB48"/>
<stop offset="1" stop-color="#9FDF73"/>
</linearGradient>
<linearGradient id="paint5_linear_91_10" x1="32.5429" y1="75.5054" x2="32.5429" y2="206.721" gradientUnits="userSpaceOnUse">
<stop stop-color="#F1AB48"/>
<stop offset="1" stop-color="#9FDF73"/>
</linearGradient>
<linearGradient id="paint6_linear_91_10" x1="32.5429" y1="75.5054" x2="32.5429" y2="206.721" gradientUnits="userSpaceOnUse">
<stop stop-color="#F1AB48"/>
<stop offset="1" stop-color="#9FDF73"/>
</linearGradient>
</defs>
</svg>
