<svg width="1714" height="127" viewBox="0 0 1714 127" fill="none" xmlns="http://www.w3.org/2000/svg">
<path d="M1048.56 115.557V107.357H1169.36L1164.96 115.557H1048.56ZM1048.56 104.357V96.7565H1174.96L1170.96 104.357H1048.56ZM1159.36 126.357H1048.56V118.157H1163.56L1159.36 126.357ZM1131.56 91.1565L1134.36 85.9566H1180.56L1176.96 92.9566H1048.56V85.9566H1093.16V91.1565H1131.56ZM1146.16 36.7565V36.1565H1093.16V36.7565H1048.56V32.3565H1190.76V36.7565H1146.16ZM1048.56 25.3566V21.5565H1190.76V25.3566H1048.56ZM1048.56 14.1565V10.7565H1190.76V14.1565H1048.56ZM1136.56 81.7565L1140.16 75.1565H1186.36L1182.76 81.7565H1136.56ZM1048.56 81.7565V75.1565H1093.16V81.7565H1048.56ZM1190.76 0.956543V2.95654H1048.56V0.956543H1190.76ZM1190.76 66.7565L1188.76 70.5565H1142.56L1145.76 64.5565H1190.76V66.7565ZM1048.56 70.5565V64.5565H1093.16V70.5565H1048.56ZM1048.56 59.1565V53.7565H1093.16V59.1565H1048.56ZM1146.16 59.1565V53.7565H1190.76V59.1565H1146.16ZM1048.56 47.9565V42.9565H1093.16V47.9565H1048.56ZM1146.16 47.9565V42.9565H1190.76V47.9565H1146.16Z" fill="#F9BE64" fill-opacity="0.25"/>
<path d="M1248.46 115.557L1244.26 107.357H1365.06V115.557H1248.46ZM1242.66 104.357L1238.66 96.7565H1365.06V104.357H1242.66ZM1365.06 126.357H1254.26L1249.86 118.157H1365.06V126.357ZM1278.86 85.9566L1281.66 91.1565H1320.46V85.9566H1365.06V92.9566H1236.66L1232.86 85.9566H1278.86ZM1230.66 81.7565L1227.26 75.1565H1273.26L1276.66 81.7565H1230.66ZM1320.46 81.7565V75.1565H1365.06V81.7565H1320.46ZM1222.86 66.7565V64.5565H1267.66L1270.86 70.5565H1224.86L1222.86 66.7565ZM1320.46 70.5565V64.5565H1365.06V70.5565H1320.46ZM1222.86 59.1565V53.7565H1267.46V59.1565H1222.86ZM1320.46 59.1565V53.7565H1365.06V59.1565H1320.46ZM1222.86 47.9565V42.9565H1267.46V47.9565H1222.86ZM1320.46 47.9565V42.9565H1365.06V47.9565H1320.46ZM1222.86 36.7565V32.3565H1267.46V36.7565H1222.86ZM1320.46 36.7565V32.3565H1365.06V36.7565H1320.46ZM1222.86 25.3566V21.5565H1267.46V25.3566H1222.86ZM1320.46 25.3566V21.5565H1365.06V25.3566H1320.46ZM1222.86 14.1565V10.7565H1267.46V14.1565H1222.86ZM1320.46 14.1565V10.7565H1365.06V14.1565H1320.46ZM1222.86 0.956543H1267.46V2.95654H1222.86V0.956543ZM1320.46 2.95654V0.956543H1365.06V2.95654H1320.46Z" fill="#F9BE64" fill-opacity="0.25"/>
<path d="M1397.16 115.557V107.357H1517.96L1513.56 115.557H1397.16ZM1397.16 104.357V96.7565H1523.56L1519.56 104.357H1397.16ZM1507.96 126.357H1397.16V118.157H1512.16L1507.96 126.357ZM1480.16 91.1565L1482.96 85.9566H1529.16L1525.56 92.9566H1397.16V85.9566H1441.76V91.1565H1480.16ZM1494.76 36.7565V36.1565H1441.76V36.7565H1397.16V32.3565H1539.36V36.7565H1494.76ZM1397.16 25.3566V21.5565H1539.36V25.3566H1397.16ZM1397.16 14.1565V10.7565H1539.36V14.1565H1397.16ZM1485.16 81.7565L1488.76 75.1565H1534.96L1531.36 81.7565H1485.16ZM1397.16 81.7565V75.1565H1441.76V81.7565H1397.16ZM1539.36 0.956543V2.95654H1397.16V0.956543H1539.36ZM1539.36 66.7565L1537.36 70.5565H1491.16L1494.36 64.5565H1539.36V66.7565ZM1397.16 70.5565V64.5565H1441.76V70.5565H1397.16ZM1397.16 59.1565V53.7565H1441.76V59.1565H1397.16ZM1494.76 59.1565V53.7565H1539.36V59.1565H1494.76ZM1397.16 47.9565V42.9565H1441.76V47.9565H1397.16ZM1494.76 47.9565V42.9565H1539.36V47.9565H1494.76Z" fill="#F9BE64" fill-opacity="0.25"/>
<path d="M1597.05 115.557L1592.85 107.357H1713.65V115.557H1597.05ZM1591.25 104.357L1587.25 96.7565H1713.65V104.357H1591.25ZM1713.65 126.357H1602.85L1598.45 118.157H1713.65V126.357ZM1627.45 85.9566L1630.25 91.1565H1669.05V85.9566H1713.65V92.9566H1585.25L1581.45 85.9566H1627.45ZM1579.25 81.7565L1575.85 75.1565H1621.85L1625.25 81.7565H1579.25ZM1669.05 81.7565V75.1565H1713.65V81.7565H1669.05ZM1571.45 66.7565V64.5565H1616.25L1619.45 70.5565H1573.45L1571.45 66.7565ZM1669.05 70.5565V64.5565H1713.65V70.5565H1669.05ZM1571.45 59.1565V53.7565H1616.05V59.1565H1571.45ZM1669.05 59.1565V53.7565H1713.65V59.1565H1669.05ZM1571.45 47.9565V42.9565H1616.05V47.9565H1571.45ZM1669.05 47.9565V42.9565H1713.65V47.9565H1669.05ZM1571.45 36.7565V32.3565H1616.05V36.7565H1571.45ZM1669.05 36.7565V32.3565H1713.65V36.7565H1669.05ZM1571.45 25.3566V21.5565H1616.05V25.3566H1571.45ZM1669.05 25.3566V21.5565H1713.65V25.3566H1669.05ZM1571.45 14.1565V10.7565H1616.05V14.1565H1571.45ZM1669.05 14.1565V10.7565H1713.65V14.1565H1669.05ZM1571.45 0.956543H1616.05V2.95654H1571.45V0.956543ZM1669.05 2.95654V0.956543H1713.65V2.95654H1669.05Z" fill="#F9BE64" fill-opacity="0.25"/>
<path d="M0.0419922 81.7565V75.1565H109.242L104.842 81.7565H0.0419922ZM0.0419922 70.5565V64.5565H116.242L112.242 70.5565H0.0419922ZM0.0419922 59.1565V53.7565H123.242L119.642 59.1565H0.0419922ZM134.642 36.5565L134.442 36.7565H84.042L84.442 36.1565H44.642V36.7565H0.0419922V32.3565H134.642V36.5565ZM0.0419922 25.3566V21.5565H134.642V25.3566H0.0419922ZM0.0419922 14.1565V10.7565H134.642V14.1565H0.0419922ZM0.0419922 115.557V107.357H44.642V115.557H0.0419922ZM44.642 126.357H0.0419922V118.157H44.642V126.357ZM0.0419922 104.357V96.7565H44.642V104.357H0.0419922ZM44.642 85.9566V92.9566H0.0419922V85.9566H44.642ZM0.0419922 2.95654V0.956543H134.642V2.95654H0.0419922ZM76.442 47.9565L79.842 42.9565H130.442L127.042 47.9565H76.442ZM0.0419922 47.9565V42.9565H44.642V47.9565H0.0419922Z" fill="#F9BE64" fill-opacity="0.25"/>
<path d="M167.503 115.557V107.357H290.903V115.557H167.503ZM290.903 126.357H167.503V118.157H290.903V126.357ZM167.503 104.357V96.7565H290.903V104.357H167.503ZM212.103 80.9566V81.7565H167.503V75.1565H290.503V80.9566H212.103ZM167.503 70.5565V64.5565H290.503V70.5565H167.503ZM167.503 59.1565V53.7565H290.503V59.1565H167.503ZM212.103 36.1565V36.7565H167.503V32.3565H290.903V36.1565H212.103ZM167.503 25.3566V21.5565H290.903V25.3566H167.503ZM290.903 91.1565V92.9566H167.503V85.9566H212.103V91.1565H290.903ZM167.503 14.1565V10.7565H290.903V14.1565H167.503ZM290.503 46.3565V47.9565H167.503V42.9565H212.103V46.3565H290.503ZM167.503 0.956543H290.903V2.95654H167.503V0.956543Z" fill="#F9BE64" fill-opacity="0.25"/>
<path d="M322.854 36.1565V32.3565H447.254V36.1565H407.254V36.7565H362.655V36.1565H322.854ZM322.854 25.3566V21.5565H447.254V25.3566H322.854ZM322.854 14.1565V10.7565H447.254V14.1565H322.854ZM407.254 126.357H362.655V118.157H407.254V126.357ZM362.655 115.557V107.357H407.254V115.557H362.655ZM362.655 104.357V96.7565H407.254V104.357H362.655ZM362.655 92.9566V85.9566H407.254V92.9566H362.655ZM362.655 81.7565V75.1565H407.254V81.7565H362.655ZM362.655 70.5565V64.5565H407.254V70.5565H362.655ZM447.254 0.956543V2.95654H322.854V0.956543H447.254ZM362.655 59.1565V53.7565H407.254V59.1565H362.655ZM362.655 47.9565V42.9565H407.254V47.9565H362.655Z" fill="#F9BE64" fill-opacity="0.25"/>
<path d="M479.183 115.557V107.357H602.583V115.557H479.183ZM602.583 126.357H479.183V118.157H602.583V126.357ZM479.183 104.357V96.7565H602.583V104.357H479.183ZM523.783 80.9566V81.7565H479.183V75.1565H602.183V80.9566H523.783ZM479.183 70.5565V64.5565H602.183V70.5565H479.183ZM479.183 59.1565V53.7565H602.183V59.1565H479.183ZM523.783 36.1565V36.7565H479.183V32.3565H602.583V36.1565H523.783ZM479.183 25.3566V21.5565H602.583V25.3566H479.183ZM602.583 91.1565V92.9566H479.183V85.9566H523.783V91.1565H602.583ZM479.183 14.1565V10.7565H602.583V14.1565H479.183ZM602.183 46.3565V47.9565H479.183V42.9565H523.783V46.3565H602.183ZM479.183 0.956543H602.583V2.95654H479.183V0.956543Z" fill="#F9BE64" fill-opacity="0.25"/>
<path d="M634.534 81.7565V75.1565H766.534V81.7565H634.534ZM634.534 70.5565V64.5565H766.534V70.5565H634.534ZM634.534 59.1565V53.7565H766.534V59.1565H634.534ZM721.934 36.1565H679.134V36.7565H634.534V32.3565H766.534V36.7565H721.934V36.1565ZM634.534 25.3566V21.5565H766.534V25.3566H634.534ZM634.534 14.1565V10.7565H766.534V14.1565H634.534ZM720.134 115.557L716.134 107.357H762.934L766.334 115.557H720.134ZM767.534 118.157L771.134 126.357H725.334L721.334 118.157H767.534ZM634.534 115.557V107.357H679.134V115.557H634.534ZM634.534 126.357V118.157H679.134V126.357H634.534ZM714.734 104.357L711.134 96.7565H758.334L761.534 104.357H714.734ZM634.534 104.357V96.7565H679.134V104.357H634.534ZM709.334 92.9566L706.134 85.9566H753.734L756.734 92.9566H709.334ZM679.134 85.9566V92.9566H634.534V85.9566H679.134ZM634.534 2.95654V0.956543H766.534V2.95654H634.534ZM634.534 47.9565V42.9565H679.134V47.9565H634.534ZM721.934 47.9565V42.9565H766.534V47.9565H721.934Z" fill="#F9BE64" fill-opacity="0.25"/>
</svg>
