<svg width="533" height="261" viewBox="0 0 533 261" fill="none" xmlns="http://www.w3.org/2000/svg">
<path d="M0.800049 184.799V178.239H97.44L93.9201 184.799H0.800049ZM0.800049 175.839V169.759H101.92L98.7201 175.839H0.800049ZM89.4401 193.439H0.800049V186.879H92.8L89.4401 193.439ZM67.2001 165.279L69.44 161.119H106.4L103.52 166.719H0.800049V161.119H36.4801V165.279H67.2001ZM78.8801 121.759V121.279H36.4801V121.759H0.800049V118.239H114.56V121.759H78.8801ZM0.800049 112.639V109.599H114.56V112.639H0.800049ZM0.800049 103.679V100.959H114.56V103.679H0.800049ZM71.2001 157.759L74.0801 152.479H111.04L108.16 157.759H71.2001ZM0.800049 157.759V152.479H36.4801V157.759H0.800049ZM114.56 93.1192V94.7192H0.800049V93.1192H114.56ZM114.56 145.759L112.96 148.799H76L78.5601 143.999H114.56V145.759ZM0.800049 148.799V143.999H36.4801V148.799H0.800049ZM0.800049 139.679V135.359H36.4801V139.679H0.800049ZM78.8801 139.679V135.359H114.56V139.679H78.8801ZM0.800049 130.719V126.719H36.4801V130.719H0.800049ZM78.8801 130.719V126.719H114.56V130.719H78.8801Z" fill="#9FDF73"/>
<path d="M160.718 184.799L157.358 178.239H253.998V184.799H160.718ZM156.078 175.839L152.878 169.759H253.998V175.839H156.078ZM253.998 193.439H165.358L161.838 186.879H253.998V193.439ZM185.038 161.119L187.278 165.279H218.318V161.119H253.998V166.719H151.278L148.238 161.119H185.038ZM146.478 157.759L143.758 152.479H180.558L183.278 157.759H146.478ZM218.318 157.759V152.479H253.998V157.759H218.318ZM140.238 145.759V143.999H176.078L178.638 148.799H141.838L140.238 145.759ZM218.318 148.799V143.999H253.998V148.799H218.318ZM140.238 139.679V135.359H175.918V139.679H140.238ZM218.318 139.679V135.359H253.998V139.679H218.318ZM140.238 130.719V126.719H175.918V130.719H140.238ZM218.318 130.719V126.719H253.998V130.719H218.318ZM140.238 121.759V118.239H175.918V121.759H140.238ZM218.318 121.759V118.239H253.998V121.759H218.318ZM140.238 112.639V109.599H175.918V112.639H140.238ZM218.318 112.639V109.599H253.998V112.639H218.318ZM140.238 103.679V100.959H175.918V103.679H140.238ZM218.318 103.679V100.959H253.998V103.679H218.318ZM140.238 93.1192H175.918V94.7192H140.238V93.1192ZM218.318 94.7192V93.1192H253.998V94.7192H218.318Z" fill="#9FDF73"/>
<path d="M279.675 184.799V178.239H376.315L372.795 184.799H279.675ZM279.675 175.839V169.759H380.795L377.595 175.839H279.675ZM368.315 193.439H279.675V186.879H371.675L368.315 193.439ZM346.075 165.279L348.315 161.119H385.275L382.395 166.719H279.675V161.119H315.355V165.279H346.075ZM357.755 121.759V121.279H315.355V121.759H279.675V118.239H393.435V121.759H357.755ZM279.675 112.639V109.599H393.435V112.639H279.675ZM279.675 103.679V100.959H393.435V103.679H279.675ZM350.075 157.759L352.955 152.479H389.915L387.035 157.759H350.075ZM279.675 157.759V152.479H315.355V157.759H279.675ZM393.435 93.1192V94.7192H279.675V93.1192H393.435ZM393.435 145.759L391.835 148.799H354.875L357.435 143.999H393.435V145.759ZM279.675 148.799V143.999H315.355V148.799H279.675ZM279.675 139.679V135.359H315.355V139.679H279.675ZM357.755 139.679V135.359H393.435V139.679H357.755ZM279.675 130.719V126.719H315.355V130.719H279.675ZM357.755 130.719V126.719H393.435V130.719H357.755Z" fill="#9FDF73"/>
<path d="M439.593 184.799L436.233 178.239H532.873V184.799H439.593ZM434.953 175.839L431.753 169.759H532.873V175.839H434.953ZM532.873 193.439H444.233L440.713 186.879H532.873V193.439ZM463.913 161.119L466.153 165.279H497.193V161.119H532.873V166.719H430.153L427.113 161.119H463.913ZM425.353 157.759L422.633 152.479H459.433L462.153 157.759H425.353ZM497.193 157.759V152.479H532.873V157.759H497.193ZM419.113 145.759V143.999H454.953L457.513 148.799H420.713L419.113 145.759ZM497.193 148.799V143.999H532.873V148.799H497.193ZM419.113 139.679V135.359H454.793V139.679H419.113ZM497.193 139.679V135.359H532.873V139.679H497.193ZM419.113 130.719V126.719H454.793V130.719H419.113ZM497.193 130.719V126.719H532.873V130.719H497.193ZM419.113 121.759V118.239H454.793V121.759H419.113ZM497.193 121.759V118.239H532.873V121.759H497.193ZM419.113 112.639V109.599H454.793V112.639H419.113ZM497.193 112.639V109.599H532.873V112.639H497.193ZM419.113 103.679V100.959H454.793V103.679H419.113ZM497.193 103.679V100.959H532.873V103.679H497.193ZM419.113 93.1192H454.793V94.7192H419.113V93.1192ZM497.193 94.7192V93.1192H532.873V94.7192H497.193Z" fill="#9FDF73"/>
<path d="M179.394 28.6101H170.869V20.6707H179.394C180.39 20.6707 181.191 20.4265 181.796 19.9382C182.421 19.45 182.87 18.7761 183.144 17.9167C183.437 17.0378 183.583 16.0515 183.583 14.9578C183.583 13.7859 183.437 12.7019 183.144 11.7058C182.87 10.7097 182.421 9.90894 181.796 9.30347C181.191 8.67847 180.39 8.36597 179.394 8.36597H174.531V43.0828H164.511V0.426514H179.394C182.343 0.426514 184.882 1.05151 187.011 2.30151C189.16 3.55151 190.81 5.27026 191.962 7.45776C193.134 9.62573 193.72 12.1062 193.72 14.8992C193.72 17.6531 193.134 20.0554 191.962 22.1062C190.81 24.157 189.16 25.7585 187.011 26.9109C184.882 28.0437 182.343 28.6101 179.394 28.6101Z" fill="#9FDF73"/>
<path d="M236.218 35.1726V43.0828H217.556V35.1726H236.218ZM221.042 0.426514V43.0828H211.023V0.426514H221.042ZM233.786 17.3601V25.0066H217.556V17.3601H233.786ZM236.306 0.426514V8.36597H217.556V0.426514H236.306Z" fill="#9FDF73"/>
<path d="M271.509 0.426514V43.0828H261.46V0.426514H271.509ZM281.851 0.426514V8.36597H251.411V0.426514H281.851Z" fill="#9FDF73"/>
<path d="M323.382 35.1726V43.0828H304.72V35.1726H323.382ZM308.206 0.426514V43.0828H298.187V0.426514H308.206ZM320.951 17.3601V25.0066H304.72V17.3601H320.951ZM323.47 0.426514V8.36597H304.72V0.426514H323.47Z" fill="#9FDF73"/>
<path d="M339.513 0.426514H354.103C356.954 0.426514 359.425 0.914795 361.515 1.89136C363.605 2.86792 365.206 4.31323 366.32 6.22729C367.453 8.14136 368.019 10.5046 368.019 13.3171C368.019 15.7585 367.706 17.7996 367.081 19.4402C366.476 21.0808 365.617 22.4382 364.503 23.5125C363.39 24.5671 362.081 25.4363 360.578 26.1199L357.326 28.0242H345.87L345.812 20.0847H353.869C354.786 20.0847 355.548 19.8503 356.154 19.3816C356.759 18.9128 357.208 18.2488 357.501 17.3894C357.814 16.5105 357.97 15.4656 357.97 14.2546C357.97 13.0242 357.824 11.9695 357.531 11.0906C357.238 10.2117 356.808 9.53784 356.242 9.06909C355.695 8.60034 354.982 8.36597 354.103 8.36597H349.533V43.0828H339.513V0.426514ZM358.41 43.0828L350.851 24.2156L361.456 24.157L369.161 42.6433V43.0828H358.41Z" fill="#9FDF73"/>
<path d="M221.823 260.24V246.24H227.883C229.136 246.24 230.216 246.447 231.123 246.86C232.029 247.26 232.729 247.84 233.223 248.6C233.716 249.36 233.963 250.267 233.963 251.32C233.963 252.36 233.716 253.26 233.223 254.02C232.729 254.767 232.029 255.34 231.123 255.74C230.216 256.14 229.136 256.34 227.883 256.34H223.623L225.063 254.92V260.24H221.823ZM230.723 260.24L227.223 255.16H230.683L234.223 260.24H230.723ZM225.063 255.28L223.623 253.76H227.703C228.703 253.76 229.449 253.547 229.943 253.12C230.436 252.68 230.683 252.08 230.683 251.32C230.683 250.547 230.436 249.947 229.943 249.52C229.449 249.093 228.703 248.88 227.703 248.88H223.623L225.063 247.34V255.28Z" fill="#F9BE64"/>
<path d="M234.69 260.24L240.93 246.24H244.13L250.39 260.24H246.99L241.87 247.88H243.15L238.01 260.24H234.69ZM237.81 257.24L238.67 254.78H245.87L246.75 257.24H237.81Z" fill="#F9BE64"/>
<path d="M256.442 260.48C255.322 260.48 254.249 260.333 253.222 260.04C252.195 259.733 251.369 259.34 250.742 258.86L251.842 256.42C252.442 256.847 253.149 257.2 253.962 257.48C254.789 257.747 255.622 257.88 256.462 257.88C257.102 257.88 257.615 257.82 258.002 257.7C258.402 257.567 258.695 257.387 258.882 257.16C259.069 256.933 259.162 256.673 259.162 256.38C259.162 256.007 259.015 255.713 258.722 255.5C258.429 255.273 258.042 255.093 257.562 254.96C257.082 254.813 256.549 254.68 255.962 254.56C255.389 254.427 254.809 254.267 254.222 254.08C253.649 253.893 253.122 253.653 252.642 253.36C252.162 253.067 251.769 252.68 251.462 252.2C251.169 251.72 251.022 251.107 251.022 250.36C251.022 249.56 251.235 248.833 251.662 248.18C252.102 247.513 252.755 246.987 253.622 246.6C254.502 246.2 255.602 246 256.922 246C257.802 246 258.669 246.107 259.522 246.32C260.375 246.52 261.129 246.827 261.782 247.24L260.782 249.7C260.129 249.327 259.475 249.053 258.822 248.88C258.169 248.693 257.529 248.6 256.902 248.6C256.275 248.6 255.762 248.673 255.362 248.82C254.962 248.967 254.675 249.16 254.502 249.4C254.329 249.627 254.242 249.893 254.242 250.2C254.242 250.56 254.389 250.853 254.682 251.08C254.975 251.293 255.362 251.467 255.842 251.6C256.322 251.733 256.849 251.867 257.422 252C258.009 252.133 258.589 252.287 259.162 252.46C259.749 252.633 260.282 252.867 260.762 253.16C261.242 253.453 261.629 253.84 261.922 254.32C262.229 254.8 262.382 255.407 262.382 256.14C262.382 256.927 262.162 257.647 261.722 258.3C261.282 258.953 260.622 259.48 259.742 259.88C258.875 260.28 257.775 260.48 256.442 260.48Z" fill="#F9BE64"/>
<path d="M264.596 260.24V246.24H267.276L273.236 256.12H271.816L277.676 246.24H280.336L280.376 260.24H277.336L277.316 250.9H277.876L273.196 258.76H271.736L266.956 250.9H267.636V260.24H264.596Z" fill="#F9BE64"/>
<path d="M281.858 260.24L288.098 246.24H291.298L297.558 260.24H294.158L289.038 247.88H290.318L285.178 260.24H281.858ZM284.978 257.24L285.838 254.78H293.038L293.918 257.24H284.978Z" fill="#F9BE64"/>
<path d="M299.01 260.24V246.24H301.69L309.95 256.32H308.65V246.24H311.85V260.24H309.19L300.91 250.16H302.21V260.24H299.01Z" fill="#F9BE64"/>
</svg>
