<svg width="91" height="15" viewBox="0 0 91 15" fill="none" xmlns="http://www.w3.org/2000/svg">
<path d="M0.822571 14.24V0.239999H6.88257C8.13591 0.239999 9.2159 0.446666 10.1226 0.859999C11.0292 1.26 11.7292 1.84 12.2226 2.6C12.7159 3.36 12.9626 4.26667 12.9626 5.32C12.9626 6.36 12.7159 7.26 12.2226 8.02C11.7292 8.76667 11.0292 9.34 10.1226 9.74C9.2159 10.14 8.13591 10.34 6.88257 10.34H2.62257L4.06257 8.92V14.24H0.822571ZM9.72257 14.24L6.22257 9.16H9.68257L13.2226 14.24H9.72257ZM4.06257 9.28L2.62257 7.76H6.70257C7.70257 7.76 8.44924 7.54667 8.94257 7.12C9.4359 6.68 9.68257 6.08 9.68257 5.32C9.68257 4.54667 9.4359 3.94667 8.94257 3.52C8.44924 3.09333 7.70257 2.88 6.70257 2.88H2.62257L4.06257 1.34V9.28Z" fill="#F9BE64"/>
<path d="M13.6896 14.24L19.9296 0.239999H23.1296L29.3896 14.24H25.9896L20.8696 1.88H22.1496L17.0096 14.24H13.6896ZM16.8096 11.24L17.6696 8.78H24.8696L25.7496 11.24H16.8096Z" fill="#F9BE64"/>
<path d="M35.4421 14.48C34.3221 14.48 33.2488 14.3333 32.2221 14.04C31.1954 13.7333 30.3688 13.34 29.7421 12.86L30.8421 10.42C31.4421 10.8467 32.1488 11.2 32.9621 11.48C33.7888 11.7467 34.6221 11.88 35.4621 11.88C36.1021 11.88 36.6154 11.82 37.0021 11.7C37.4021 11.5667 37.6954 11.3867 37.8821 11.16C38.0688 10.9333 38.1621 10.6733 38.1621 10.38C38.1621 10.0067 38.0154 9.71333 37.7221 9.5C37.4288 9.27333 37.0421 9.09333 36.5621 8.96C36.0821 8.81333 35.5488 8.68 34.9621 8.56C34.3888 8.42667 33.8088 8.26667 33.2221 8.08C32.6488 7.89333 32.1221 7.65333 31.6421 7.36C31.1621 7.06667 30.7688 6.68 30.4621 6.2C30.1688 5.72 30.0221 5.10667 30.0221 4.36C30.0221 3.56 30.2354 2.83333 30.6621 2.18C31.1021 1.51333 31.7554 0.986666 32.6221 0.599999C33.5021 0.2 34.6021 0 35.9221 0C36.8021 0 37.6688 0.106666 38.5221 0.319999C39.3754 0.519999 40.1288 0.826666 40.7821 1.24L39.7821 3.7C39.1288 3.32667 38.4754 3.05333 37.8221 2.88C37.1688 2.69333 36.5288 2.6 35.9021 2.6C35.2754 2.6 34.7621 2.67333 34.3621 2.82C33.9621 2.96667 33.6754 3.16 33.5021 3.4C33.3288 3.62667 33.2421 3.89333 33.2421 4.2C33.2421 4.56 33.3888 4.85333 33.6821 5.08C33.9754 5.29333 34.3621 5.46667 34.8421 5.6C35.3221 5.73333 35.8488 5.86667 36.4221 6C37.0088 6.13333 37.5888 6.28667 38.1621 6.46C38.7488 6.63333 39.2821 6.86667 39.7621 7.16C40.2421 7.45333 40.6288 7.84 40.9221 8.32C41.2288 8.8 41.3821 9.40667 41.3821 10.14C41.3821 10.9267 41.1621 11.6467 40.7221 12.3C40.2821 12.9533 39.6221 13.48 38.7421 13.88C37.8754 14.28 36.7754 14.48 35.4421 14.48Z" fill="#F9BE64"/>
<path d="M43.596 14.24V0.239999H46.276L52.236 10.12H50.816L56.676 0.239999H59.336L59.376 14.24H56.336L56.316 4.9H56.876L52.196 12.76H50.736L45.956 4.9H46.636V14.24H43.596Z" fill="#F9BE64"/>
<path d="M60.8576 14.24L67.0976 0.239999H70.2976L76.5576 14.24H73.1576L68.0376 1.88H69.3176L64.1776 14.24H60.8576ZM63.9776 11.24L64.8376 8.78H72.0376L72.9176 11.24H63.9776Z" fill="#F9BE64"/>
<path d="M78.0101 14.24V0.239999H80.6901L88.9501 10.32H87.6501V0.239999H90.8501V14.24H88.1901L79.9101 4.16H81.2101V14.24H78.0101Z" fill="#F9BE64"/>
</svg>
